<?xml version="1.0" standalone="no"?>
<!DOCTYPE svg PUBLIC "-//W3C//DTD SVG 20010904//EN"
 "http://www.w3.org/TR/2001/REC-SVG-20010904/DTD/svg10.dtd">
<svg version="1.0" xmlns="http://www.w3.org/2000/svg"
 width="1895.000000pt" height="733.000000pt" viewBox="0 0 1895.000000 733.000000"
 preserveAspectRatio="xMidYMid meet">

<g transform="translate(0.000000,733.000000) scale(0.100000,-0.100000)"
fill="#000000" stroke="none">
<path d="M12034 4699 c-39 -11 -59 -34 -72 -82 -14 -50 -6 -69 27 -65 19 2 27
10 29 28 9 60 44 65 113 14 58 -43 104 -52 147 -30 42 22 62 53 62 97 0 28 -5
38 -20 42 -25 6 -46 -11 -54 -44 -3 -15 -13 -30 -22 -33 -16 -6 -74 19 -74 32
0 8 -43 30 -80 41 -14 4 -39 4 -56 0z"/>
<path d="M10584 4667 c-3 -9 -4 -30 -2 -48 3 -37 32 -51 78 -39 22 6 25 12 25
51 l0 44 -48 3 c-34 2 -49 -1 -53 -11z"/>
<path d="M8001 4643 c-7 -16 -19 -46 -26 -68 -14 -41 -22 -63 -96 -265 -23
-63 -58 -162 -79 -220 -20 -58 -42 -118 -49 -133 -6 -16 -11 -33 -11 -38 0
-14 86 -11 97 4 5 6 22 51 38 100 l28 87 158 0 159 0 15 -37 c9 -21 23 -60 32
-88 9 -27 20 -56 26 -62 13 -18 97 -17 97 0 0 8 -16 58 -36 113 -20 54 -42
117 -49 139 -7 22 -28 78 -45 125 -18 47 -36 99 -41 115 -5 17 -13 39 -18 50
-5 11 -22 56 -37 100 -15 44 -32 86 -37 93 -5 7 -32 12 -62 12 -47 0 -53 -3
-64 -27z m98 -173 c12 -36 25 -72 28 -80 23 -58 63 -177 63 -187 0 -10 -33
-13 -130 -13 -71 0 -130 1 -130 3 0 1 16 47 36 102 20 55 40 116 46 135 5 19
19 57 31 83 23 55 25 54 56 -43z"/>
<path d="M8575 4461 c-67 -29 -112 -112 -95 -172 16 -56 38 -76 127 -120 48
-23 98 -52 111 -63 31 -27 29 -76 -4 -107 -22 -20 -35 -24 -87 -23 -45 1 -72
7 -97 22 -50 31 -60 28 -60 -17 0 -37 2 -40 49 -60 100 -43 241 -16 290 54 16
23 21 46 21 91 0 51 -4 64 -27 89 -16 17 -44 37 -63 46 -163 76 -170 82 -170
131 1 61 83 86 176 54 38 -13 49 -13 56 -4 12 20 10 34 -11 59 -16 20 -28 23
-107 26 -49 2 -98 -1 -109 -6z"/>
<path d="M9035 4456 c-16 -7 -41 -26 -55 -41 -22 -23 -25 -36 -25 -95 0 -62 3
-70 28 -94 31 -28 138 -86 160 -86 7 0 25 -13 40 -28 35 -37 36 -80 1 -113
-34 -32 -118 -32 -188 0 -55 26 -72 19 -61 -27 14 -66 182 -96 274 -49 56 28
82 63 88 120 11 95 -26 141 -153 188 -76 29 -107 57 -107 99 0 46 32 70 94 70
27 0 66 -7 86 -15 52 -22 63 -19 63 13 0 50 -30 65 -128 69 -59 2 -96 -1 -117
-11z"/>
<path d="M9554 4452 c-94 -44 -144 -139 -144 -272 0 -87 24 -166 63 -209 63
-69 210 -93 305 -50 65 29 90 54 123 124 25 52 29 71 29 150 0 75 -4 98 -25
140 -29 60 -40 73 -85 105 -29 21 -48 25 -130 28 -77 2 -103 -1 -136 -16z
m201 -69 c8 -2 26 -23 42 -45 26 -39 28 -47 28 -147 0 -88 -3 -112 -20 -139
-30 -49 -73 -72 -136 -72 -103 0 -149 53 -157 180 -10 167 56 249 187 234 24
-3 49 -8 56 -11z"/>
<path d="M10199 4461 c-116 -38 -176 -179 -150 -352 16 -102 52 -155 128 -190
130 -59 331 29 273 121 -8 12 -11 12 -27 -1 -68 -58 -149 -74 -205 -41 -97 56
-108 287 -17 368 43 39 143 36 197 -6 38 -30 52 -26 52 18 0 31 -6 41 -36 61
-28 20 -50 25 -112 27 -42 2 -89 0 -103 -5z"/>
<path d="M10603 4463 c-10 -3 -13 -69 -13 -279 l0 -275 43 3 42 3 3 269 c2
209 -1 271 -10 278 -14 8 -46 9 -65 1z"/>
<path d="M10950 4462 c-14 -4 -40 -15 -57 -25 -28 -15 -33 -23 -33 -52 0 -42
13 -44 66 -13 30 17 54 22 112 23 69 0 75 -2 98 -28 19 -22 24 -39 24 -81 l0
-53 -98 -5 c-113 -5 -160 -23 -200 -76 -23 -30 -27 -46 -27 -96 0 -45 6 -68
20 -88 50 -66 170 -89 249 -45 22 12 45 28 49 35 14 22 27 13 27 -19 0 -29 2
-30 38 -27 l37 3 0 220 c0 246 -4 265 -62 305 -32 22 -49 25 -127 27 -50 1
-102 -2 -116 -5z m210 -356 c0 -63 -1 -65 -40 -96 -72 -57 -153 -51 -184 15
-15 30 -16 42 -6 66 7 15 18 34 26 40 26 21 89 38 147 39 l57 0 0 -64z"/>
<path d="M11532 4450 c-45 -23 -66 -48 -101 -118 -19 -37 -22 -60 -22 -152 0
-96 3 -114 25 -158 28 -55 53 -79 114 -106 44 -20 63 -51 65 -108 l2 -33 -60
-5 c-49 -4 -60 -8 -63 -24 -6 -31 26 -46 93 -46 103 0 137 51 101 154 l-14 40
56 23 c70 28 86 44 86 88 0 45 -9 53 -37 28 -61 -55 -154 -69 -203 -31 -37 29
-46 43 -61 98 -27 97 -6 214 46 264 25 24 36 28 90 27 48 0 68 -5 98 -25 52
-36 63 -33 63 12 0 31 -6 42 -32 62 -27 20 -47 25 -118 28 -72 3 -92 0 -128
-18z"/>
<path d="M12045 4464 c-11 -2 -39 -14 -62 -27 -37 -19 -43 -26 -43 -54 0 -37
20 -44 57 -18 32 22 119 38 168 30 55 -8 85 -49 85 -117 l0 -45 -105 -5 c-89
-5 -111 -10 -150 -32 -54 -32 -79 -75 -78 -138 1 -94 70 -158 171 -158 52 0
116 24 155 58 16 14 17 13 17 -16 0 -31 2 -32 40 -32 l40 0 0 226 c0 210 -1
229 -20 259 -35 56 -64 69 -165 71 -49 2 -99 1 -110 -2z m205 -353 c0 -55 -2
-61 -36 -91 -66 -57 -124 -66 -173 -24 -24 20 -31 34 -31 63 0 20 7 46 15 59
20 28 94 50 168 51 l57 1 0 -59z"/>
<path d="M12656 4463 c-37 -10 -94 -55 -119 -91 -65 -100 -62 -299 6 -386 65
-82 210 -112 315 -64 57 26 118 90 132 138 31 106 20 252 -25 318 -13 19 -40
46 -62 60 -34 23 -49 27 -133 29 -52 1 -104 -1 -114 -4z m192 -96 c45 -42 62
-90 62 -177 0 -140 -53 -210 -160 -210 -66 0 -113 27 -141 83 -30 57 -30 186
-1 242 25 49 59 82 92 88 49 10 124 -3 148 -26z"/>
<path d="M2409 3970 c-45 -13 -87 -51 -104 -92 -13 -33 -15 -104 -15 -474 0
-415 1 -437 20 -474 12 -24 37 -49 63 -65 l44 -25 442 0 c420 0 444 1 480 20
22 11 50 36 62 57 l24 38 3 444 c3 428 2 444 -17 485 -12 22 -37 52 -58 66
l-37 25 -440 2 c-243 1 -453 -2 -467 -7z"/>
<path d="M8952 3412 c-9 -7 -12 -74 -10 -303 l3 -294 30 0 30 0 3 294 c2 298
1 311 -33 311 -5 0 -16 -4 -23 -8z"/>
<path d="M9162 3412 c-9 -7 -12 -74 -10 -303 l3 -294 28 -3 27 -3 0 143 0 144
34 33 c44 42 100 52 136 23 24 -20 25 -25 30 -179 l5 -158 30 0 30 0 3 153 c2
125 0 159 -14 188 -39 81 -126 101 -207 46 l-46 -31 -3 122 c-2 99 -6 122 -18
124 -8 2 -21 -1 -28 -5z"/>
<path d="M12840 3295 l0 -115 -42 27 c-122 78 -248 -19 -248 -189 0 -185 126
-269 257 -172 l32 24 3 -27 c3 -24 8 -28 33 -28 l30 0 3 298 2 297 -35 0 -35
0 0 -115z m-36 -161 l36 -29 0 -83 0 -83 -37 -34 c-32 -29 -46 -35 -84 -35
-39 0 -48 4 -68 31 -29 38 -40 138 -22 192 27 81 103 98 175 41z"/>
<path d="M13940 3296 c0 -107 -7 -135 -26 -105 -13 22 -95 51 -122 44 -61 -15
-91 -37 -116 -86 -22 -41 -26 -62 -26 -135 0 -70 4 -94 22 -125 50 -90 139
-107 231 -45 l36 25 3 -27 c2 -23 8 -27 33 -27 l30 0 0 295 0 295 -32 3 -33 3
0 -115z m-34 -167 c33 -32 34 -36 34 -110 l0 -77 -41 -36 c-36 -33 -45 -37
-86 -34 -65 4 -86 35 -91 132 -5 82 15 141 52 157 39 17 96 3 132 -32z"/>
<path d="M18400 3295 c0 -63 -3 -115 -6 -115 -3 0 -20 11 -37 24 -42 31 -75
38 -122 25 -85 -24 -133 -118 -123 -243 7 -80 31 -130 75 -158 53 -32 109 -29
167 10 26 18 49 32 52 32 2 0 4 -13 4 -30 0 -25 4 -30 25 -30 l25 0 0 300 0
300 -30 0 -30 0 0 -115z m-40 -161 l40 -36 0 -77 c0 -76 0 -77 -39 -115 -35
-34 -42 -37 -87 -34 -45 3 -50 6 -71 43 -41 73 -22 218 32 244 43 21 83 13
125 -25z"/>
<path d="M12370 3376 c-6 -8 -10 -25 -8 -38 4 -32 62 -39 78 -9 23 44 -38 85
-70 47z"/>
<path d="M17924 3366 c-10 -41 1 -58 38 -54 30 3 33 6 33 38 0 32 -3 35 -32
38 -28 3 -33 -1 -39 -22z"/>
<path d="M7745 3357 c-3 -7 -4 -131 -3 -277 l3 -265 30 0 30 0 5 245 5 245 23
-49 c12 -27 22 -51 22 -54 0 -3 19 -53 41 -111 110 -283 107 -276 144 -276 29
0 32 5 71 100 45 111 57 140 85 203 10 23 19 47 19 52 0 6 9 29 19 53 11 23
23 53 28 67 5 15 10 -72 13 -225 l5 -250 30 0 30 0 0 275 0 275 -52 3 -53 3
-23 -53 c-29 -64 -40 -89 -83 -196 -19 -46 -42 -102 -52 -125 -11 -23 -22 -51
-26 -61 -3 -10 -9 -17 -11 -14 -3 2 -43 101 -90 218 -47 118 -91 218 -98 222
-20 13 -107 9 -112 -5z"/>
<path d="M8600 3224 c-59 -21 -78 -39 -106 -99 -33 -69 -32 -152 1 -223 21
-45 32 -56 72 -74 56 -25 136 -27 198 -5 32 11 41 19 43 42 3 23 1 27 -15 21
-40 -16 -117 -26 -153 -20 -48 8 -86 47 -95 97 l-7 37 127 0 c69 0 135 5 146
10 47 25 0 171 -64 202 -54 26 -97 29 -147 12z m105 -59 c33 -16 55 -50 55
-85 0 -19 -8 -20 -111 -20 -110 0 -110 0 -104 23 12 44 28 66 59 81 39 20 60
20 101 1z"/>
<path d="M9740 3231 c-76 -23 -122 -65 -139 -126 -22 -80 -8 -198 27 -239 32
-35 94 -59 152 -59 65 0 110 22 154 77 28 35 31 45 34 126 5 127 -29 188 -122
215 -54 16 -68 17 -106 6z m130 -96 c23 -23 25 -33 25 -115 0 -85 -1 -90 -29
-119 -26 -27 -37 -31 -84 -31 -47 0 -57 4 -83 31 -47 51 -53 167 -11 227 40
55 130 59 182 7z"/>
<path d="M10224 3226 c-17 -8 -40 -25 -51 -40 -27 -34 -33 -33 -33 9 0 31 -3
35 -25 35 l-25 0 0 -211 0 -210 28 3 27 3 5 135 c5 123 7 138 29 167 28 37 51
47 99 44 30 -1 32 1 32 29 0 24 -6 33 -26 40 -14 6 -26 10 -27 10 -1 -1 -16
-7 -33 -14z"/>
<path d="M10475 3226 c-66 -21 -85 -35 -85 -61 0 -30 1 -30 70 -4 94 36 160 6
160 -71 l0 -40 -51 0 c-149 0 -227 -73 -186 -173 32 -75 138 -92 220 -35 l27
19 0 -26 c0 -23 4 -26 28 -23 l27 3 0 160 c0 108 -4 170 -13 190 -23 56 -121
86 -197 61z m145 -266 c0 -27 -7 -47 -20 -60 -84 -84 -215 -12 -135 74 21 23
32 26 90 26 l65 0 0 -40z"/>
<path d="M10964 3226 c-17 -8 -40 -25 -51 -40 -27 -34 -33 -33 -33 9 0 31 -3
35 -25 35 l-25 0 0 -211 0 -210 28 3 27 3 5 135 c5 137 8 148 43 188 16 17 31
22 69 22 47 0 48 1 48 30 0 24 -6 33 -26 40 -14 6 -26 10 -27 10 -1 -1 -16 -7
-33 -14z"/>
<path d="M11415 3226 c-66 -21 -85 -35 -85 -61 0 -30 1 -30 70 -4 94 36 160 6
160 -71 l0 -40 -51 0 c-144 0 -215 -62 -188 -162 22 -84 133 -107 221 -46 26
18 27 18 30 -4 2 -17 10 -23 28 -23 l25 0 3 150 c3 169 -8 219 -56 247 -39 23
-110 30 -157 14z m145 -269 c0 -31 -6 -47 -21 -60 -52 -45 -127 -46 -147 -1
-17 36 -15 48 13 78 21 23 32 26 90 26 l65 0 0 -43z"/>
<path d="M13103 3218 c-58 -19 -63 -23 -63 -49 0 -29 16 -38 36 -21 18 16 96
33 124 27 39 -8 61 -36 67 -84 l6 -41 -51 0 c-73 0 -148 -20 -173 -46 -25 -27
-36 -94 -20 -132 28 -66 126 -84 205 -38 l46 27 0 -26 c0 -22 4 -26 23 -23 22
3 22 6 25 160 3 176 -6 216 -55 241 -51 27 -103 28 -170 5z m167 -256 c0 -71
-96 -127 -153 -89 -32 21 -38 48 -20 85 17 36 27 39 111 41 l62 1 0 -38z"/>
<path d="M14259 3231 c-85 -27 -127 -79 -144 -179 -8 -52 18 -158 48 -190 42
-46 124 -67 195 -52 79 17 103 30 100 54 -3 23 -4 23 -93 6 -102 -19 -158 13
-179 103 l-6 27 134 0 c157 0 162 3 153 80 -7 62 -32 105 -73 129 -38 23 -100
33 -135 22z m90 -65 c28 -15 51 -53 51 -86 0 -19 -8 -20 -109 -20 l-109 0 9
28 c17 53 20 58 47 74 34 21 75 22 111 4z"/>
<path d="M14875 3225 c-52 -19 -81 -53 -101 -122 -31 -107 1 -238 67 -277 50
-29 113 -24 165 13 l44 31 0 -105 0 -105 35 0 35 0 -2 283 -3 282 -25 0 c-20
0 -26 -6 -28 -27 -3 -25 -22 -41 -22 -19 0 13 -62 48 -96 55 -16 3 -47 -1 -69
-9z m121 -76 c47 -29 54 -46 54 -134 0 -75 0 -76 -37 -110 -30 -27 -47 -35
-76 -35 -53 0 -72 13 -91 60 -32 80 -14 190 38 225 29 21 73 19 112 -6z"/>
<path d="M15839 3231 c-37 -12 -72 -32 -87 -50 -33 -40 -54 -106 -54 -167 0
-174 137 -254 315 -182 20 8 27 17 25 32 -2 12 -10 20 -18 18 -100 -22 -130
-23 -192 -6 -23 7 -58 65 -58 98 l0 26 124 0 c68 0 131 3 140 6 22 8 21 95 -1
141 -29 62 -128 105 -194 84z m92 -66 c30 -16 49 -49 49 -86 0 -18 -8 -19
-105 -19 -117 0 -124 5 -86 64 36 54 87 69 142 41z"/>
<path d="M16302 3219 c-23 -12 -48 -31 -55 -43 -11 -20 -12 -19 -17 14 -4 29
-10 36 -33 38 l-27 3 2 -208 3 -208 30 0 30 0 3 147 3 146 35 31 c40 36 81 40
115 12 23 -18 24 -26 29 -178 l5 -158 30 0 30 0 3 144 3 143 29 30 c36 36 95
47 125 25 18 -14 20 -30 25 -179 l5 -163 33 -3 32 -3 0 167 c0 196 -8 220 -86
250 -42 16 -46 16 -87 -2 -23 -10 -52 -30 -64 -43 l-23 -24 -29 32 c-27 29
-68 51 -94 51 -7 0 -31 -10 -55 -21z"/>
<path d="M17197 3229 c-106 -25 -157 -125 -137 -271 16 -115 109 -175 218
-143 60 18 82 37 82 71 0 28 -16 31 -42 7 -10 -9 -41 -18 -72 -21 -48 -4 -58
-1 -79 20 -63 63 -49 242 20 269 38 15 109 5 134 -17 17 -16 22 -16 30 -4 5 8
7 21 4 28 -3 8 -5 17 -5 21 0 8 -61 37 -95 44 -11 3 -37 1 -58 -4z"/>
<path d="M18705 3233 c-57 -13 -105 -37 -111 -55 -10 -33 8 -38 70 -17 98 34
157 8 160 -68 l1 -38 -71 -6 c-91 -8 -113 -15 -146 -47 -23 -21 -28 -34 -28
-73 0 -26 3 -54 6 -63 10 -25 70 -57 113 -59 40 -1 120 30 122 48 0 6 4 -1 8
-15 5 -17 15 -26 34 -28 36 -4 40 17 35 186 -4 151 -16 190 -66 216 -31 16
-98 26 -127 19z m125 -271 c0 -30 -7 -45 -31 -68 -26 -24 -38 -29 -80 -28 -56
1 -69 11 -69 60 0 32 15 58 40 67 8 3 43 6 78 6 l62 1 0 -38z"/>
<path d="M11919 3226 c-5 -5 59 -208 73 -231 3 -5 13 -32 21 -60 32 -107 44
-125 81 -125 18 0 39 6 45 14 17 21 141 366 141 393 0 8 -12 13 -29 13 -33 0
-41 -16 -106 -217 -21 -62 -41 -113 -45 -113 -4 0 -10 10 -13 23 -3 12 -27 85
-54 162 -47 136 -49 140 -78 143 -17 2 -33 1 -36 -2z"/>
<path d="M12375 3218 c-3 -8 -4 -101 -3 -208 l3 -195 30 0 30 0 0 205 0 205
-28 3 c-16 2 -29 -2 -32 -10z"/>
<path d="M15254 3216 c-3 -8 -4 -82 -2 -163 3 -117 7 -155 21 -180 20 -38 66
-65 112 -66 35 -1 95 24 115 48 19 23 30 18 30 -16 0 -27 3 -30 28 -27 l27 3
0 205 0 205 -30 0 -30 0 -5 -145 c-5 -132 -7 -147 -27 -167 -32 -32 -57 -43
-97 -43 -60 0 -70 28 -76 204 l-5 151 -28 3 c-17 2 -29 -2 -33 -12z"/>
<path d="M17467 3223 c-12 -11 -8 -294 5 -335 24 -81 121 -104 208 -50 l50 31
0 -30 c0 -27 3 -30 28 -27 l27 3 0 205 0 205 -30 0 -30 0 -3 -147 -3 -146 -35
-31 c-35 -31 -92 -42 -121 -23 -31 20 -43 81 -43 217 0 135 0 135 -23 135 -13
0 -27 -3 -30 -7z"/>
<path d="M17930 3020 l0 -211 33 3 32 3 0 205 0 205 -32 3 -33 3 0 -211z"/>
</g>
</svg>
